Coordinates

Units are S.I. units (second, meters, Newtons, ...)
If the header above contains a line with 'inDegrees', this indicates whether rotational values are in degrees (yes) or radians (no).

inDegrees=no
nColumns=21
nRows=22
DataType=double
version=3
OpenSimVersion=4.6-2026-03-31-d6972f9e6
endheader
time	/jointset/ground_pelvis/pelvis_tilt/value	/jointset/ground_pelvis/pelvis_list/value	/jointset/ground_pelvis/pelvis_rotation/value	/jointset/ground_pelvis/pelvis_tx/value	/jointset/ground_pelvis/pelvis_ty/value	/jointset/ground_pelvis/pelvis_tz/value	/jointset/hip_r/hip_flexion_r/value	/jointset/hip_r/hip_adduction_r/value	/jointset/hip_r/hip_rotation_r/value	/jointset/walker_knee_r/knee_angle_r/value	/jointset/patellofemoral_r/knee_angle_r_beta/value	/jointset/ankle_r/ankle_angle_r/value	/jointset/subtalar_r/subtalar_angle_r/value	/jointset/hip_l/hip_flexion_l/value	/jointset/hip_l/hip_adduction_l/value	/jointset/hip_l/hip_rotation_l/value	/jointset/walker_knee_l/knee_angle_l/value	/jointset/patellofemoral_l/knee_angle_l_beta/value	/jointset/ankle_l/ankle_angle_l/value	/jointset/subtalar_l/subtalar_angle_l/value
144.996	-0.1006009043807233	0.04811472837682877	0.09131332416704857	1.148787494638988	0.9445345716579597	-0.2902569593043753	-0.1121691806461771	-0.02303853749546846	0.1403959738880715	1.016076916708317	1.016076915526908	-0.4123972284385939	-0.2158917161841443	0.4967227569673503	0.1258891587451282	0.1535425318103724	0.4739608473209287	0.4739608476357179	-0.03500291927326325	-0.5230346228992474
145	-0.09471573278890889	0.05106657300609028	0.093887741603259	1.14823323147277	0.942211646859529	-0.2911107081579166	-0.1044464379834364	-0.03250948720480753	0.1252676874684699	1.047785013930489	1.047785012602414	-0.406254883094182	-0.2380582628376678	0.4930831308869151	0.131215222422016	0.1514001902436835	0.5018837823115057	0.5018837825283595	-0.03149048929708322	-0.530796436161984
145.004	-0.08889935390037819	0.05410621654643166	0.09668811373807003	1.14758947057835	0.9398573854894325	-0.2919904936129813	-0.09624090659262365	-0.04240083078795983	0.1102910851854471	1.079162536609199	1.079162535143415	-0.3994404381296704	-0.2605942214132549	0.489523866818214	0.1364674094611932	0.1485920905382884	0.5300319640203657	0.5300319641221796	-0.02559371911136214	-0.5366605592838282
145.008	-0.0832245158434195	0.05721129567562619	0.09970796035405285	1.146859540238663	0.9374858821856689	-0.2928858646524688	-0.08747906375173008	-0.05262105860017099	0.09563923538575529	1.110124559449903	1.110124557863789	-0.39178789999314	-0.2830787112409889	0.4860000410132088	0.1415905741875433	0.145190912701052	0.5581585575319521	0.5581585575121275	-0.01731769129949733	-0.5405773591662357
145.012	-0.07776330766272625	0.0603614629673135	0.1029356629097834	1.146048600521837	0.9351131056320466	-0.2937854638239384	-0.07808953233267493	-0.06307855176652213	0.0814686056091503	1.140576804051843	1.140576802371553	-0.383162363931592	-0.3051140853642643	0.4824558022701137	0.146533779472432	0.1412815122974903	0.5860078112973632	0.5860078111602367	-0.006732601984905436	-0.5425428261176393
145.016	-0.07258541532585094	0.06353786524572494	0.1063547246111091	1.14516349231254	0.9327567874468512	-0.2946772920653074	-0.06800517876997531	-0.0736823421679367	0.06791743661709491	1.17041564515777	1.170415643417792	-0.3734665987192862	-0.3263367703088536	0.4788258148210839	0.1512510004636866	0.1369594041881438	0.6133184960228143	0.6133184957827013	0.006028610915982432	-0.5425975946439959
145.02	-0.06775604817497757	0.06672252663410856	0.1099441328579603	1.144212523516815	0.9304362524891365	-0.2955490174614782	-0.05716560830142903	-0.08434271614887114	0.05510452505563979	1.199528499505167	1.199528497746905	-0.3626455638640116	-0.3464262537421609	0.4750367182213442	0.1557015930469413	0.1323290782146972	0.6398279233788375	0.6398279230578758	0.02077474591506189	-0.5408252160545957
145.024	-0.0633335656357477	0.06989765842101356	0.1136787901266187	1.14320520681556	0.9281721963169592	-0.2963883154667262	-0.04552003268920559	-0.0949716481259951	0.04312840674874829	1.227794573927244	1.227794572196669	-0.3506886925535961	-0.3651119279820088	0.4710084732275795	0.1598504689957852	0.1275021437323619	0.6652763896999659	0.6652763893250159	0.03726271718802134	-0.537349626409906
145.028	-0.05936691652465774	0.07304491735370598	0.1175299745840357	1.142151964939778	0.9259864136612465	-0.2971832254855069	-0.03303038079838482	-0.1054830703957383	0.03206691391609779	1.255085947530281	1.255085945875015	-0.3376299143480034	-0.3821776488707488	0.4666555426359427	0.1636679348426222	0.1225953003024835	0.6894118624579717	0.6894118620568759	0.05520552086070196	-0.532331779764434
145.032	-0.05589308018888936	0.07614464316687181	0.1214657958645808	1.141063819457993	0.9239014789090778	-0.2979225078939184	-0.01967442561474691	-0.1157930125719475	0.0219770693963586	1.28126896729262	1.281268965758939	-0.3235455081323826	-0.3974639957279166	0.4618879520683186	0.1671291819858393	0.1177281216730593	0.7119947365633892	0.7119947361610404	0.07428143275127241	-0.5259653757872748
145.036	-0.0529347652620035	0.07917511282646042	0.1254516276516333	1.139952077879153	0.9219403763693703	-0.2985959851748251	-0.005448617793664277	-0.1258196489863482	0.01289530451507643	1.30620594699262	1.306205945622783	-0.3085499958768768	-0.4108683323976033	0.4566123645447164	0.1702134508786968	0.1130206421015571	0.7328024958552461	0.7328024954701259	0.09414410411547786	-0.5184715600851439
145.04	-0.05049859030160794	0.08211186130430453	0.12945051097997	1.138828033267727	0.9201260839180299	-0.2991948512399226	0.009629646236394453	-0.135483294417283	0.004838001380851429	1.329757137085352	1.329757135915382	-0.2927904170740113	-0.4223428930015607	0.4507332685303764	0.1729029375346477	0.1085907769413924	0.7516340905168601	0.7516340901587455	0.1144331293866337	-0.510092651274545
145.044	-0.04857384565861217	0.08492712604934255	0.1334235161251428	1.137702690377202	0.9184811270998421	-0.2997119339897513	0.0255204435262246	-0.1447063877745056	-0.002197641464146478	1.351782879219265	1.351782878277175	-0.2764394130098645	-0.4318912099468851	0.4441542466730612	0.1751815413602515	0.1045516561089376	0.7683138231284018	0.7683138227976322	0.1347844810063613	-0.5010852681991751
145.048	-0.04713189143950178	0.08758946879007028	0.1373300512864303	1.136586530189492	0.9170271242346411	-0.3001418981027036	0.04216050230882089	-0.1534135043924685	-0.008232420653914356	1.372145841703144	1.372145841007637	-0.2596875892061283	-0.4395632449878161	0.4367792737525411	0.1770335695158431	0.1010089581066132	0.7826945653717172	0.7826945650599364	0.1548401944210999	-0.4917133360965518
145.052	-0.04612632950531181	0.09006363419639651	0.1411281279112553	1.135489320572798	0.9157843323936252	-0.3004813787242709	0.05946330961708247	-0.1615314722107093	-0.01330362790614378	1.390713271180347	1.390713270740226	-0.2427356091477335	-0.4454495670097451	0.4285141281850686	0.1784425429452379	0.0980583112676217	0.7946601867593273	0.7946601864513185	0.1742568958944413	-0.4822412567386041
145.056	-0.04549414029086512	0.09231069116476029	0.1447746028598228	1.134419976354684	0.914771194537198	-0.3007290394604426	0.07732038752294766	-0.1689896741569001	-0.01746325408557999	1.407359233121643	1.407359232936035	-0.2257864082515524	-0.4496748617892758	0.4192681115791647	0.1793902413489326	0.09578279634547972	0.8041271467159797	0.8041271463921418	0.1927130244612338	-0.4729272697726343
145.06	-0.04515787179780563	0.09428843937203892	0.1482254042163042	1.133386468694789	0.9140038922316843	-0.3008855490576315	0.09560386138265638	-0.1757205283490646	-0.02077589549483516	1.421966797564195	1.421966797623474	-0.2090378726921847	-0.4523910477184971	0.4089562109741147	0.1798560411161399	0.09425056865010593	0.8110452638486735	0.8110452634876854	0.2099147218064648	-0.4640169910961401
145.064	-0.04502881768606744	0.09595202557315705	0.151435744121503	1.132395781120887	0.9134959167347598	-0.3009534743739355	0.1141702619857988	-0.1816600691954097	-0.02331636085805873	1.43443009559502	1.434430095882206	-0.1926762902214516	-0.4537702836125717	0.3975017106170134	0.1798165462096169	0.09351262496335541	0.8153977159136194	0.8153977154949623	0.2256003722380593	-0.4557372206164622
145.068	-0.04501107219298896	0.09725474651887286	0.154360344330135	1.131453907104344	0.9132576699976555	-0.3009370938480131	0.13286543045418	-0.1867486044004883	-0.02516702250721571	1.444656183686293	1.444656184178817	-0.1768708025810087	-0.4539981111602916	0.3848392252326247	0.1792455484689182	0.09360075444621722	0.8172003518157975	0.8172003513220198	0.2395438241628226	-0.4482901086948089
145.072	-0.0450062921998657	0.09814902554170549	0.1569537228689345	1.130565881693153	0.9132961076114243	-0.3008421429378293	0.1515303150658388	-0.1909314486844469	-0.02641501552279813	1.452566656777212	1.452566657448842	-0.1617690942214068	-0.4532670050550017	0.3709180725168291	0.178114372038134	0.09452576664216913	0.8165004051193753	0.8165004045379978	0.2515563308705943	-0.4418478501265076
145.076	-0.04491885516984535	0.09858749640500407	0.1591705846463254	1.129735838338001	0.9136144457707068	-0.3006755080527845	0.1700072806164753	-0.1941596543518229	-0.02714941467527085	1.458098915371484	1.458098916194101	-0.1474946157083602	-0.4517707024463458	0.3557057510145322	0.1763925930228847	0.0962761605019672	0.8133746841170733	0.8133746834418594	0.2614871503211595	-0.4365483345356492
145.08	-0.0446610551081395	0.09852410828007553	0.160966327998818	1.128967082062506	0.9142119554803764	-0.3004448863854108	0.1881464990396631	-0.196390630738673	-0.02745849156476509	1.4612069980795	1.461206999024446	-0.1341454829417495	-0.4496995521057863	0.339191243998559	0.1740490679306962	0.0988173698576276	0.8079273179941222	0.8079273172255232	0.2692227964445505	-0.4324921354021521
